<?xml version="1.0" standalone="no"?>
<!DOCTYPE svg PUBLIC "-//W3C//DTD SVG 20010904//EN"
 "http://www.w3.org/TR/2001/REC-SVG-20010904/DTD/svg10.dtd">
<svg version="1.0" xmlns="http://www.w3.org/2000/svg"
 width="587.000000pt" height="587.000000pt" viewBox="0 0 587.000000 587.000000"
 preserveAspectRatio="xMidYMid meet">

<g transform="translate(0.000000,587.000000) scale(0.100000,-0.100000)"
fill="#000000" stroke="none">
<path d="M2740 5864 c-19 -2 -82 -9 -140 -15 -352 -37 -773 -171 -1085 -346
-252 -141 -436 -282 -651 -497 -215 -215 -356 -399 -497 -651 -173 -309 -299
-702 -348 -1085 -18 -134 -18 -542 -1 -670 87 -649 342 -1204 759 -1652 482
-517 1071 -822 1783 -925 176 -25 575 -25 750 0 716 104 1321 419 1792 934
407 445 654 977 745 1603 25 175 25 574 0 750 -103 712 -408 1301 -925 1783
-439 408 -990 666 -1611 753 -101 14 -497 27 -571 18z m570 -79 c346 -50 609
-132 911 -282 285 -142 517 -309 745 -537 233 -233 398 -464 544 -761 143
-289 222 -542 271 -865 33 -211 33 -601 0 -810 -54 -350 -137 -607 -293 -913
-224 -437 -565 -815 -980 -1087 -350 -230 -731 -374 -1168 -441 -209 -33 -599
-33 -810 0 -323 49 -576 128 -865 271 -569 280 -1017 725 -1298 1289 -213 427
-302 809 -301 1291 0 261 11 375 60 598 92 432 290 848 569 1197 102 128 312
338 440 440 443 354 979 570 1545 625 132 12 503 4 630 -15z"/>
<path d="M4320 3949 c-446 -90 -487 -100 -507 -124 -94 -107 -78 -586 26 -795
99 -198 246 -300 390 -269 62 13 187 95 223 147 31 45 69 152 94 267 18 84 25
341 14 569 -4 89 -2 109 10 116 8 4 79 20 158 35 157 31 192 48 192 94 0 39
-28 61 -76 60 -21 -1 -257 -45 -524 -100z m-326 -250 c33 -15 50 -67 49 -149
-1 -138 -80 -221 -154 -161 -21 17 -24 30 -27 98 -5 103 9 153 53 192 40 35
44 36 79 20z m0 -398 c24 -26 17 -70 -15 -94 -61 -45 -133 38 -82 95 21 24 75
23 97 -1z"/>
<path d="M1039 3969 c-26 -26 -22 -66 11 -90 14 -10 70 -28 125 -40 55 -12
103 -24 108 -28 4 -4 -2 -34 -13 -67 -56 -161 -70 -441 -31 -594 26 -100 91
-227 143 -281 75 -77 196 -118 291 -98 166 35 272 173 361 469 52 169 93 453
73 497 -13 28 -38 36 -312 97 -110 25 -310 70 -445 101 -134 30 -255 55 -267
55 -13 0 -32 -9 -44 -21z m443 -229 c36 -45 8 -205 -47 -264 -44 -47 -115 -26
-131 40 -9 36 2 167 16 196 27 52 42 60 94 55 36 -3 55 -11 68 -27z m-77 -375
c14 -13 25 -32 25 -41 0 -26 -40 -64 -66 -64 -23 0 -64 42 -64 67 0 19 45 63
65 63 9 0 27 -11 40 -25z"/>
<path d="M4403 2349 c-35 -10 -73 -52 -73 -79 0 -26 32 -61 55 -61 11 -1 37 2
57 6 39 8 35 10 108 -72 24 -28 64 -29 90 -3 28 28 25 60 -12 116 -50 72 -151
114 -225 93z"/>
<path d="M4197 2067 c-18 -18 -59 -70 -91 -115 -33 -46 -107 -129 -166 -185
-214 -207 -472 -344 -774 -409 -150 -33 -444 -33 -605 0 -103 21 -115 22 -136
8 -56 -37 -32 -101 45 -123 148 -43 451 -56 640 -28 363 54 676 211 936 470
155 154 264 300 264 355 0 26 -34 60 -61 60 -12 0 -35 -15 -52 -33z"/>
</g>
</svg>
