<?xml version="1.0" standalone="no"?>
<!DOCTYPE svg PUBLIC "-//W3C//DTD SVG 20010904//EN"
 "http://www.w3.org/TR/2001/REC-SVG-20010904/DTD/svg10.dtd">
<svg version="1.0" xmlns="http://www.w3.org/2000/svg"
 width="707.000000pt" height="212.000000pt" viewBox="0 0 707.000000 212.000000"
 preserveAspectRatio="xMidYMid meet">

<g transform="translate(0.000000,212.000000) scale(0.100000,-0.100000)"
fill="#000000" stroke="none">
<path d="M2510 1365 l0 -245 55 0 55 0 0 245 0 245 -55 0 -55 0 0 -245z"/>
<path d="M3750 1450 l0 -160 -79 0 -80 0 -11 55 c-25 122 -113 199 -225 199
-71 -1 -108 -17 -157 -72 -51 -56 -73 -128 -72 -237 0 -112 21 -177 75 -239
70 -79 171 -94 267 -39 53 30 88 85 109 169 l16 64 78 0 79 0 0 -245 0 -245
55 0 55 0 0 455 0 455 -55 0 -55 0 0 -160z m-331 -21 c43 -40 61 -96 61 -192
0 -97 -14 -145 -57 -189 -20 -21 -37 -28 -63 -28 -46 0 -75 21 -102 73 -19 35
-23 58 -23 142 0 84 4 107 23 142 12 23 32 49 44 57 33 23 90 20 117 -5z"/>
<path d="M4720 1155 l0 -455 55 0 55 0 0 455 0 455 -55 0 -55 0 0 -455z"/>
<path d="M4540 1445 l0 -145 -90 0 -90 0 0 -50 0 -50 90 0 90 0 0 -235 0 -235
50 0 50 0 0 430 0 430 -50 0 -50 0 0 -145z"/>
<path d="M1900 1520 l0 -50 96 0 97 0 -7 -41 c-4 -22 -15 -58 -26 -78 -23 -46
-132 -149 -165 -157 -33 -8 -32 -14 10 -54 l35 -34 33 17 c38 21 112 88 148
135 l25 32 54 -52 c30 -29 76 -64 101 -77 l46 -24 31 34 c17 19 32 37 32 40 0
3 -19 14 -42 25 -88 39 -168 136 -168 204 l0 30 90 0 90 0 0 50 0 50 -240 0
-240 0 0 -50z"/>
<path d="M4090 1240 l0 -290 38 0 c68 1 334 19 338 23 3 2 2 22 -2 43 l-6 39
-129 -4 -129 -3 0 191 0 191 115 0 115 0 0 50 0 50 -170 0 -170 0 0 -290z"/>
<path d="M5120 1480 l0 -50 246 0 247 0 -6 -182 c-2 -101 -8 -191 -12 -200 -6
-16 -1 -18 48 -18 43 0 56 4 62 18 4 9 10 122 13 250 l5 232 -302 0 -301 0 0
-50z"/>
<path d="M760 1470 l0 -50 236 0 236 0 -4 -212 c-3 -117 -9 -221 -13 -230 -7
-17 -30 -18 -291 -18 l-284 0 0 -50 0 -50 420 0 420 0 0 50 0 50 -81 0 c-80 0
-81 0 -74 23 3 12 9 138 12 280 l6 257 -292 0 -291 0 0 -50z"/>
<path d="M6130 1479 c-58 -12 -119 -55 -147 -104 -36 -63 -32 -73 33 -77 50
-3 57 -1 64 18 5 11 23 33 40 47 26 22 42 27 87 27 47 0 59 -4 84 -29 22 -22
29 -39 29 -67 0 -34 -8 -44 -80 -112 -82 -77 -100 -109 -100 -179 l0 -33 54 0
53 0 7 41 c6 36 18 53 85 116 90 84 105 113 99 184 -12 120 -156 200 -308 168z"/>
<path d="M5310 1080 l0 -150 -150 0 -150 0 0 -50 0 -50 415 0 415 0 0 50 0 50
-210 0 -210 0 0 150 0 150 -55 0 -55 0 0 -150z"/>
<path d="M2050 905 l0 -185 285 0 285 0 0 180 0 180 -55 0 -55 0 0 -45 0 -45
-180 0 -180 0 0 50 0 50 -50 0 -50 0 0 -185z m460 -50 l0 -35 -180 0 -180 0 0
35 0 35 180 0 180 0 0 -35z"/>
<path d="M6140 855 l0 -65 55 0 55 0 0 65 0 65 -55 0 -55 0 0 -65z"/>
</g>
</svg>
